<svg xmlns="http://www.w3.org/2000/svg" viewBox="0 0 1440 320">
  <defs>
    <linearGradient id="wave1" x1="0%" y1="0%" x2="100%" y2="0%">
      <stop offset="0%" style="stop-color:#0284c7;stop-opacity:0.3"/>
      <stop offset="50%" style="stop-color:#0ea5e9;stop-opacity:0.2"/>
      <stop offset="100%" style="stop-color:#38bdf8;stop-opacity:0.3"/>
    </linearGradient>
    <linearGradient id="wave2" x1="0%" y1="0%" x2="100%" y2="0%">
      <stop offset="0%" style="stop-color:#0369a1;stop-opacity:0.2"/>
      <stop offset="50%" style="stop-color:#0284c7;stop-opacity:0.15"/>
      <stop offset="100%" style="stop-color:#0ea5e9;stop-opacity:0.2"/>
    </linearGradient>
  </defs>
  <path fill="url(#wave1)" d="M0,160L48,170.7C96,181,192,203,288,192C384,181,480,139,576,128C672,117,768,139,864,165.3C960,192,1056,224,1152,213.3C1248,203,1344,149,1392,122.7L1440,96L1440,320L1392,320C1344,320,1248,320,1152,320C1056,320,960,320,864,320C768,320,672,320,576,320C480,320,384,320,288,320C192,320,96,320,48,320L0,320Z"/>
  <path fill="url(#wave2)" d="M0,224L48,213.3C96,203,192,181,288,186.7C384,192,480,224,576,234.7C672,245,768,235,864,213.3C960,192,1056,160,1152,165.3C1248,171,1344,213,1392,234.7L1440,256L1440,320L1392,320C1344,320,1248,320,1152,320C1056,320,960,320,864,320C768,320,672,320,576,320C480,320,384,320,288,320C192,320,96,320,48,320L0,320Z"/>
</svg>
